<?xml version="1.0" encoding="UTF-8" standalone="no"?>
<svg
   xmlns:dc="http://purl.org/dc/elements/1.1/"
   xmlns:cc="http://creativecommons.org/ns#"
   xmlns:rdf="http://www.w3.org/1999/02/22-rdf-syntax-ns#"
   xmlns:svg="http://www.w3.org/2000/svg"
   xmlns="http://www.w3.org/2000/svg"
   xmlns:xlink="http://www.w3.org/1999/xlink"
   xmlns:sodipodi="http://sodipodi.sourceforge.net/DTD/sodipodi-0.dtd"
   xmlns:inkscape="http://www.inkscape.org/namespaces/inkscape"
   version="1.0"
   width="633.35297"
   height="704.23126"
   viewBox="-26975 -28007 56043.439 62335.414"
   id="svg2"
   sodipodi:version="0.32"
   inkscape:version="0.47 r22583"
   sodipodi:docname="ZZ2.svg"
   inkscape:output_extension="org.inkscape.output.svg.inkscape">
  <metadata
     id="metadata51">
    <rdf:RDF>
      <cc:Work
         rdf:about="">
        <dc:format>image/svg+xml</dc:format>
        <dc:type
           rdf:resource="http://purl.org/dc/dcmitype/StillImage" />
      </cc:Work>
    </rdf:RDF>
  </metadata>
  <defs
     id="defs49">
    <inkscape:perspective
       sodipodi:type="inkscape:persp3d"
       inkscape:vp_x="0 : 356.55884 : 1"
       inkscape:vp_y="0 : 1000 : 0"
       inkscape:vp_z="641.55261 : 356.55884 : 1"
       inkscape:persp3d-origin="320.77631 : 237.70589 : 1"
       id="perspective33" />
    <clipPath
       clipPathUnits="userSpaceOnUse"
       id="clipPath3474">
      <use
         transform="matrix(0.00185171,0,0,0.00185171,88.066883,53.233863)"
         xlink:href="#state_outline"
         id="use3476"
         style="fill:#ffffff;stroke:#000000;stroke-width:183.16294861;stroke-linejoin:round;stroke-miterlimit:4;stroke-opacity:1;stroke-dasharray:none"
         x="0"
         y="0"
         width="56769"
         height="63122" />
    </clipPath>
  </defs>
  <sodipodi:namedview
     inkscape:window-height="1004"
     inkscape:window-width="1280"
     inkscape:pageshadow="2"
     inkscape:pageopacity="0.0"
     guidetolerance="10.0"
     gridtolerance="10.0"
     objecttolerance="10.0"
     borderopacity="1.0"
     bordercolor="#666666"
     pagecolor="#ffffff"
     id="base"
     width="770px"
     height="6312.2px"
     inkscape:zoom="0.33875524"
     inkscape:cx="443.57342"
     inkscape:cy="437.00091"
     inkscape:window-x="-8"
     inkscape:window-y="-8"
     inkscape:current-layer="g3478"
     showgrid="false"
     inkscape:window-maximized="1" />
  <clipPath
     id="state_clip_path">
    <g
       id="state_outline">
      <path
         id="New Mexico"
         d="m -25179,-27898 4528,121 1390,32 1150,28 815,17 293,8 318,7 472,11 329,8 318,7 159,0 621,8 159,0 1385,16 159,0 1452,17 400,3 529,4 36,0 56,2 82,3 246,-1 1612,21 1390,14 303,2 174,0 134,2 169,2 605,4 31,40 31,35 303,-1 210,0 1750,2 148,-1 965,2 149,0 2437,-11 369,-4 159,-2 139,-1 164,-3 328,-4 503,-7 139,-3 -61,1 1179,-8 169,-1 873,-1 343,-1 4443,-25 683,-4 374,-2 313,-1 298,19 6244,-92 1303,-58 1585,-43 8194,-244 759,-27 24,720 63,1884 34,1010 30,918 33,990 -359,21 43,1140 51,1362 12,463 33,1327 20,639 112,3497 1,15 41,1298 143,4841 1,16 77,2564 62,1916 12,372 130,4210 22,639 3,87 64,2178 0,157 -2,363 14,408 25,237 20,1680 3,284 8,819 13,1218 12,737 31,2036 30,2012 34,2299 14,475 143,4850 141,4833 27,954 -2307,56 -172,4 -122,3 -365,10 -164,4 -3033,70 -2277,58 -173,5 -169,3 -61,1 -11,0 -92,3 -148,3 -15,0 -316,4 -812,12 -2399,38 -3118,40 -146,2 -786,12 -158,3 -138,2 -475,7 -81,1 -77,1 -159,3 -148,0 -480,11 -153,-1 -154,0 -153,5 -164,0 -634,10 -71,1 -116,3 -198,3 -277,6 -321,6 -46,0 -80,1 -691,0 -168,5 -164,1 -634,0 -159,5 -163,1 -476,0 -476,5 -471,3 -164,1 -71,5 -184,0 -480,1 -158,0 -200,6 -179,1 -203,-1 -416,0 -218,1 -158,0 -465,2 -1093,0 -1157,-1 -521,2 -876,3 -560,0 -796,2 -317,0 -470,1 -163,1 -170,0 -409,-4 2,35 -24,22 -47,10 -39,16 -23,24 -30,41 -2,5 -18,46 -5,45 20,30 36,10 36,1 41,-3 36,8 25,14 8,14 -3,41 -18,32 -23,9 -25,21 -20,25 -8,36 13,25 20,8 25,-2 30,-17 25,-1 12,24 1,10 -14,21 -14,17 -23,36 -16,35 -5,40 -7,49 -3,25 -15,17 -19,16 -22,15 -15,20 5,23 15,8 31,-6 36,3 25,2 15,10 19,19 1,26 -14,16 -24,16 -32,15 -34,5 -38,15 -31,15 -49,33 -43,49 -14,30 -15,35 5,25 20,26 36,25 14,13 39,48 19,40 7,34 -13,42 -19,35 -14,31 -3,7 17,24 31,44 124,139 70,63 37,1 30,-2 22,14 2,35 -4,28 -5,45 0,46 3,18 18,34 31,8 25,-6 26,11 16,6 19,19 24,19 39,48 30,49 62,16 29,-6 31,-8 24,-5 12,-1 7,-1 49,0 36,5 64,40 23,20 21,18 28,49 28,44 23,19 21,18 12,14 10,20 0,15 -10,20 -15,26 -2068,-5 -2404,-14 -1297,-11 -158,-5 -811,-7 -159,0 -316,-4 -531,-3 -158,-5 -797,-7 -158,0 -332,-4 -301,-4 -158,-5 -1465,-15 -475,-3 -168,0 -1282,-31 -510,-8 -159,-4 -796,-18 -158,1 -827,-17 -158,-5 -235,-4 -36,0 -4,192 -5,167 1,172 -37,1776 -5,167 -11,805 -33,1716 -1107,-21 -806,-17 -5790,-117 -302,-7 10,-422 3,-121 18,-612 4,-152 13,-405 8,-219 16,-728 8,-252 6,-174 96,-3337 10,-329 6,-204 4,-172 20,-714 11,-392 56,-1962 5,-161 14,-501 5,-162 10,-353 10,-321 4,-167 2,-48 6,-212 54,-1926 28,-1008 17,-629 11,-387 24,-749 5,-206 8,-279 1,-54 2,-93 7,-240 2,-93 5,-140 10,-325 72,-2573 9,-315 72,-2633 4,-148 37,-1331 51,-1848 14,-495 72,-2566 14,-501 11,-468 26,-811 11,-328 7,-232 8,-263 6,-171 3,-75 4,-167 6,-302 8,-343 3,-102 2,-65 34,-1159 7,-238 14,-428 3,-116 3,-91 2,-70 2,-60 3,-107 68,-2394 9,-317 8,-282 27,-998 65,-2273 4,-151 5,-161 5,-151 4,-166 5,-146 38,-1300 96,-3446 114,-3797 4,-120 214,-7365 31,-1057 72,-2472 z" />
    </g>
  </clipPath>
  <g
     id="g3478"
     transform="matrix(1.185078,0,0,1.185078,-502945.89,5589.8729)">
    <use
       transform="matrix(0.8333111,0,0,0.8333111,424107.57,-5011.3814)"
       xlink:href="#state_outline"
       id="use9"
       style="fill:#ffd700;fill-opacity:1;stroke:none"
       x="0"
       y="0"
       width="56769"
       height="63122" />
    <g
       clip-path="url(#clipPath3474)"
       id="g3432"
       transform="matrix(450.02352,0,0,450.02352,384475.4,-28967.872)">
      <g
         id="g3436"
         style="stroke:#dc143c;stroke-width:3;stroke-linecap:round">
        <circle
           id="circle3438"
           r="10"
           cy="60"
           cx="90"
           sodipodi:cx="90"
           sodipodi:cy="60"
           sodipodi:rx="10"
           sodipodi:ry="10"
           style="fill:none"
           d="m 100,60 c 0,5.522847 -4.477153,10 -10,10 -5.522847,0 -10,-4.477153 -10,-10 0,-5.522847 4.477153,-10 10,-10 5.522847,0 10,4.477153 10,10 z" />
        <line
           id="line3440"
           y2="35"
           y1="51"
           x2="96"
           x1="96" />
        <line
           id="line3442"
           y2="30"
           y1="49"
           x2="92"
           x1="92" />
        <line
           id="line3444"
           y2="30"
           y1="49"
           x2="88"
           x1="88" />
        <line
           id="line3446"
           y2="35"
           y1="51"
           x2="84"
           x1="84" />
        <line
           id="line3448"
           y2="54"
           y1="54"
           x2="65"
           x1="81" />
        <line
           id="line3450"
           y2="58"
           y1="58"
           x2="60"
           x1="79" />
        <line
           id="line3452"
           y2="62"
           y1="62"
           x2="60"
           x1="79" />
        <line
           id="line3454"
           y2="66"
           y1="66"
           x2="65"
           x1="81" />
        <line
           id="line3456"
           y2="85"
           y1="69"
           x2="84"
           x1="84" />
        <line
           id="line3458"
           y2="90"
           y1="71"
           x2="88"
           x1="88" />
        <line
           id="line3460"
           y2="90"
           y1="71"
           x2="92"
           x1="92" />
        <line
           id="line3462"
           y2="85"
           y1="69"
           x2="96"
           x1="96" />
        <line
           id="line3464"
           y2="66"
           y1="66"
           x2="115"
           x1="99" />
        <line
           id="line3466"
           y2="62"
           y1="62"
           x2="120"
           x1="101" />
        <line
           id="line3468"
           y2="58"
           y1="58"
           x2="120"
           x1="101" />
        <line
           id="line3470"
           y2="54"
           y1="54"
           x2="115"
           x1="99" />
      </g>
    </g>
  </g>
</svg>
